#!OML:ASF F:\VICON\USERDATA\INSTALL\rory3\rory3.ASF
:FULLY-SPECIFIED
:DEGREES
82
root -0.2341184719109558 17.96920251819619 30.14113176920535 -3.644073525769388 -0.5912132494574144 -5.020562784187546
lfemur -13.651193630232267 1.2116679208837635 -13.517371198981834
ltibia 71.34594571421806
lfoot -1.0600179997225023 -9.398034134539877
ltoes -6.85721024048577
rfemur -11.687023769515779 5.430844001283513 32.006833390324
rtibia 31.194417485504008
rfoot -11.669587860782121 -5.926998613140173
rtoes 10.516443874743008
lowerback 1.0 0.10122555405116324 3.4650000799207685
upperback 0.6270943509378135 0.36393493635497814 2.5729202515091543
thorax -4.661591863264334 0.20703443742979175 0.8511682945188463
lowerneck -15.28219209375269 -2.624974622187675 -1.9930104785970875
upperneck 21.263300585748805 -3.2901167768791977 1.2541825212045459
head 9.168884776979969 -1.5644771981362195 0.3706336894650433
lclavicle 2.6180235590794917e-15 -5.6808018646016655e-15
lhumerus -28.581075349667113 0.523478895563092 83.78121555290718
lradius 27.66723924490837
lwrist 3.9899249707896582
lhand -26.589447708716005 25.390918533193062
lfingers nan
lthumb -0.0839488921252779 55.702147366897776
rclavicle -7.484171591834183e-16 -9.00479097397615e-15
rhumerus -32.647457863184705 -25.02560409261412 -75.05116451104831
rradius 18.558188047244855
rwrist 14.136312652771316
rhand -19.164559632589555 1.0
rfingers nan
rthumb 7.290257354469606 -5.268090365652906
83
root -0.23633213506900386 17.972918869148934 31.374484003023575 -3.5549288497488463 -1.2201220399285997 -5.319952107182452
lfemur -18.38669745043968 2.317029311647234 -13.543715893856103
ltibia 71.1154446603176
lfoot -3.439084184993834 -6.645902140353893
ltoes -3.3867165618558697
rfemur -8.901492255800534 5.595684380461347 32.53622352806252
rtibia 30.964703279876986
rfoot -13.295471285613072 -5.881718464357831
rtoes 10.654961231224023
lowerback 1.0 0.6070060329868379 3.6330502578056487
upperback 0.46375410757180946 0.9552305662771208 2.281932725030474
thorax -5.027260098079013 0.5234663708390357 0.38125865207450405
lowerneck -15.122320565974562 -2.663509669854084 -1.8486152069838209
upperneck 21.60091012790766 -3.4472705005090516 1.0250429831154237
head 9.28579614086587 -1.6528386779631363 0.23891944568520343
lclavicle 6.636933013262459e-15 1.771113463261576e-16
lhumerus -30.04643194833182 0.667118541325181 83.88476159213232
lradius 27.24865516149144
lwrist 4.693981393804872
lhand -27.759798976913395 21.282066175235144
lfingers nan
lthumb -0.9731693028142225 51.61952575022427
rclavicle 2.3161217422828825e-15 -4.271041584126303e-15
rhumerus -31.097532327654395 -20.98525859533958 -77.43945780953563
rradius 21.40449930484486
rwrist 10.28197795241438
rhand -19.42180333811263 1.0
rfingers nan
rthumb 7.06545685630667 -5.867666997133764
84
root -0.229254610058928 17.950699043631037 32.23066605332649 -3.342402051358013 -1.963049233276728 -5.805947353979895
lfemur -22.768218274591238 3.224099687608665 -12.59363350421602
ltibia 68.32949046730576
lfoot -5.016346585743996 -4.259795314802962
ltoes -5.854479159357395
rfemur -6.115171558775196 5.715953377817372 34.0075867689055
rtibia 30.634131179410005
rfoot -14.753268951488726 -5.6033655141641585
rtoes 10.332971437180547
lowerback 1.0 1.0054135684418248 5.117020392474392
upperback 0.3478287832264545 1.7177690670364765 2.378604125874714
thorax -5.301665082163129 0.8247923240541176 -0.5150602375169564
lowerneck -15.1098689612227 -2.7494901085389785 -1.8663430915063839
upperneck 21.212997885395144 -3.601145827685519 1.1893283932735086
head 9.140392601665582 -1.7130164122252256 0.2883586007404035
lclavicle 1.2739624333717791e-15 -5.2651453615950744e-15
lhumerus -31.309493442258557 1.4419037796867302 83.73282873309309
lradius 26.87818176972286
lwrist 5.507046333431654
lhand -27.281675939342303 23.45076658425448
lfingers nan
lthumb -0.2715304697323385 54.45016644888595
rclavicle 9.854833812983887e-16 -6.7637871067238014e-15
rhumerus -28.859661223688725 -17.5805187760762 -79.26250172182816
rradius 23.836081628766554
rwrist 8.09997254613834
rhand -19.279351720600015 1.0
rfingers nan
rthumb 7.220540069807635 -7.8442330447968995
85
root -0.21204837562765533 17.912893108356204 32.96425539400343 -2.9461234241139085 -2.655061393943016 -6.277738308915283
lfemur -26.20251680663589 3.28932731956223 -11.984780066198043
ltibia 63.20649773097186
lfoot -5.61178235376509 -1.540106740723893
ltoes -6.469877752420132
rfemur -4.344719592652915 5.317225371586157 34.854748079673335
rtibia 30.377443714786423
rfoot -16.730290755003 -5.511954675960727
rtoes 11.094199929007203
lowerback 1.0 1.2579461127070721 6.115840697060295
upperback 0.31376070649758425 2.297284148472769 2.3776988711806366
thorax -5.2968307722285 1.0577093173827052 -1.2006564746415094
lowerneck -15.396559363324176 -2.777909635144857 -1.8696530046609467
upperneck 21.1348389632189 -3.6562272187605553 1.281290502987479
head 9.22192109292208 -1.7227599476426458 0.30161002301787215
lclavicle -5.649196352983162e-16 -5.421733298786622e-15
lhumerus -32.61237715449919 2.269412116430804 83.47862399468971
lradius 26.47275277250047
lwrist 4.875883544858141
lhand -27.191731715065696 24.509345743429233
lfingers nan
lthumb -0.4771394988087322 54.53012828204903
rclavicle 2.6028450363902934e-15 -4.4256070162411664e-15
rhumerus -26.7256986111336 -14.563565692904614 -80.66687217650117
rradius 26.316019662549273
rwrist 5.349592605914493
rhand -19.1922963044152 1.0
rfingers nan
rthumb 7.063513340132547 -7.137048797212211
86
root -0.1950821602062428 17.864227801661624 33.40091051407829 -2.4213583576157363 -3.4032575282835733 -6.788798224250205
lfemur -28.294180942159407 2.8763808098324715 -12.078734757531635
ltibia 55.32202908181338
lfoot -6.268467127281761 0.1701619015354674
ltoes -4.765655180019639
rfemur -2.1096377964451882 5.242281362822585 35.096903176654436
rtibia 29.761929459798672
rfoot -17.55949018042397 -5.379849205024778
rtoes 10.83041242737795
lowerback 1.0 1.5284030231434647 6.44022633123061
upperback 0.28825378057477924 2.7911435616936338 2.3003820832259207
thorax -5.234990926232899 1.2717932758520343 -1.55086315411783
lowerneck -15.478161141762524 -2.759800200145164 -1.7735334433287793
upperneck 20.63002005726641 -3.551109576760042 0.9775190074119876
head 9.057433702220882 -1.6963125333457916 0.1710662906166816
lclavicle 1.4843658536192777e-15 -5.625885892124611e-15
lhumerus -33.9312331467247 4.152767204819532 82.88844908314496
lradius 25.397622155339775
lwrist 2.9969030485708847
lhand -27.9795519197411 23.042831591172778
lfingers nan
lthumb -1.0292847784722658 53.28263326839895
rclavicle 2.173493969916669e-15 -6.5082931954882585e-15
rhumerus -24.822317706511924 -12.005308880721971 -81.38759843629629
rradius 28.39456683349732
rwrist 3.1001305408252002
rhand -19.628273795355334 1.0
rfingers nan
rthumb 6.8142627070159385 -5.413494823855166
87
root -0.1880860244551671 17.812964701903674 33.26843303485488 -1.8360069398913048 -4.159029790884752 -7.304861116396167
lfemur -28.90366765573961 1.2475935094214876 -10.881617906286534
ltibia 44.43119127759627
lfoot -5.260752916016282 1.7559633241200832
ltoes -4.414588707298419
rfemur -0.006778208511152073 5.676444513557524 35.67568001347577
rtibia 28.45632765918865
rfoot -17.905965609089115 -5.776002078607206
rtoes 9.68910322216922
lowerback 1.0 1.8853358651389749 7.171948936447501
upperback 0.14214977660430456 3.3293679482118264 2.323482447804637
thorax -5.322960077261239 1.5333543415785433 -1.9490624480049183
lowerneck -15.495597787051876 -2.837907024112712 -1.9046309956247618
upperneck 20.13438057810724 -3.8157117731188626 1.473843801998981
head 8.909901108268889 -1.7964508248649926 0.3677740897774262
lclavicle 1.1700500724081864e-15 -3.769054808812714e-15
lhumerus -34.98152149254827 5.534491456002435 82.35261455825916
lradius 23.773455680808716
lwrist 2.2178417885904427
lhand -29.052662452526953 21.83064225332197
lfingers nan
lthumb -1.8894181192326613 52.78134049264739
rclavicle 2.3024383215273916e-15 -4.6210667257570964e-15
rhumerus -22.92495100305703 -10.24849237395818 -81.73529622558085
rradius 29.968331971127903
rwrist 1.525673912910631
rhand -19.166045325456203 1.0
rfingers nan
rthumb 7.148882339216361 -5.757710345014693
88
root -0.1860401418333446 17.752785551709422 33.040389895951236 -1.27578850414667 -4.943599463220641 -7.886878051988691
lfemur -28.276853524614786 -1.131984288114455 -9.090612381448068
ltibia 32.17845525904917
lfoot -2.0992774806034995 2.6040986334430576
ltoes -6.591262190704158
rfemur 2.71684615006666 6.12873300992981 36.224311280547674
rtibia 26.586140180015867
rfoot -17.426111954125425 -5.901435897888964
rtoes 8.064965415802288
lowerback 1.0 2.1908561856923274 7.682148980808245
upperback 0.11264982415571886 3.7294169312299457 2.3559449148687386
thorax -5.094113649386872 1.7401830228774422 -2.2512288945915007
lowerneck -15.94174246088736 -2.912462720805289 -1.9160884268215788
upperneck 20.39917493853358 -3.9724563407604436 1.4869477720785274
head 9.112880799307604 -1.8513251281062553 0.3066913807719849
lclavicle 9.133519341531689e-16 -5.324071951699426e-15
lhumerus -35.538510992423475 7.116917336038044 81.7809156332735
lradius 21.630560717662796
lwrist 1.6935749470226733
lhand -29.510733764212194 22.012596680703737
lfingers nan
lthumb -2.9726994108671754 51.53675447040862
rclavicle 7.686180444144073e-16 -4.239587311713822e-15
rhumerus -21.038673030867272 -9.413902953121694 -81.95492523555019
rradius 30.733015721533793
rwrist 1.0858799990515493
rhand -19.58617680501782 1.0
rfingers nan
rthumb 6.774403024471912 -5.248225920387357
89
root -0.15821280319450282 17.694006935170925 33.94959040386279 -0.8099078795049162 -5.529341559795235 -8.063478376858779
lfemur -27.164764429570013 -4.895534966140372 -6.957483305065759
ltibia 20.574335878791075
lfoot -2.9998971554166647 1.9106372756759802
ltoes -7.324566050913127
rfemur 5.895636015797669 6.078381777301216 36.609466687795475
rtibia 25.122416929634525
rfoot -17.668510669299913 -6.030805366927778
rtoes 3.1638429711304954
lowerback 1.0 2.37820211209055 8.278316326386978
upperback -0.03290362073171349 3.9177172657904684 2.3896994858046363
thorax -5.1406151064844465 1.8553969331597329 -2.464177171077875
lowerneck -15.553251924683359 -2.852537258744839 -1.6618939336318967
upperneck 19.673332732401168 -3.850913030107225 1.1996984253651704
head 8.745433053491205 -1.8095053109521286 0.1665718126207056
lclavicle 1.9162092760926557e-15 -3.37074264167177e-15
lhumerus -36.463335414125815 9.418225724179177 80.29475948464545
lradius 18.87737834953445
lwrist -0.4124340884541482
lhand -27.709771985058907 21.821329981169082
lfingers nan
lthumb -0.8874234279668859 52.16964509244464
rclavicle -7.6255524745865065e-16 -6.2995394028529564e-15
rhumerus -19.9471498930201 -8.947659273596706 -82.045061244913
rradius 31.61629187655395
rwrist 0.7208062531733699
rhand -19.80331586768055 1.0
rfingers nan
rthumb 6.687551101528577 -5.702198710869854
